# xmcd
#
# Track frame offsets:
#	150
#	20012
#	40170
#	59075
#	83320
#	108640
#	135270
#	155480
#	176782
#	192772
#	210767
#	231230
#	251915
#
# Disc length: 3689 seconds
# Revision: 0
# Processed by: cddbd v1.5.2PL0 Copyright (c) Steve Scherf et al.
# Submitted via: dBpowerAMP V12.0
#
DISCID=aa0e670d
DTITLE=Ronnie Lovejoy - Think About You All The Time
DYEAR=1996
DGENRE=Soul
TTITLE0=Think About You All The Time
TTITLE1=Sleeping in Someone Else's Bed
TTITLE2=Baby Take me
TTITLE3=Take it Personal
TTITLE4=Tell The Truth
TTITLE5=Never Feel Like This Before
TTITLE6=Send You Back to Mother
TTITLE7=Thank You
TTITLE8=Dumb Rat
TTITLE9=Head Down Blues
TTITLE10=Dirty Dance
TTITLE11=Shout it Out
TTITLE12=Nothing Takes The Place of You
EXTD=
EXTT0=
EXTT1=
EXTT2=
EXTT3=
EXTT4=
EXTT5=
EXTT6=
EXTT7=
EXTT8=
EXTT9=
EXTT10=
EXTT11=
EXTT12=
PLAYORDER=
